%TF.GenerationSoftware,KiCad,Pcbnew,(6.0.1-0)*%
%TF.CreationDate,2023-10-18T16:46:14+05:30*%
%TF.ProjectId,esp-timer,6573702d-7469-46d6-9572-2e6b69636164,rev?*%
%TF.SameCoordinates,Original*%
%TF.FileFunction,Soldermask,Top*%
%TF.FilePolarity,Negative*%
%FSLAX46Y46*%
G04 Gerber Fmt 4.6, Leading zero omitted, Abs format (unit mm)*
G04 Created by KiCad (PCBNEW (6.0.1-0)) date 2023-10-18 16:46:14*
%MOMM*%
%LPD*%
G01*
G04 APERTURE LIST*
G04 Aperture macros list*
%AMRoundRect*
0 Rectangle with rounded corners*
0 $1 Rounding radius*
0 $2 $3 $4 $5 $6 $7 $8 $9 X,Y pos of 4 corners*
0 Add a 4 corners polygon primitive as box body*
4,1,4,$2,$3,$4,$5,$6,$7,$8,$9,$2,$3,0*
0 Add four circle primitives for the rounded corners*
1,1,$1+$1,$2,$3*
1,1,$1+$1,$4,$5*
1,1,$1+$1,$6,$7*
1,1,$1+$1,$8,$9*
0 Add four rect primitives between the rounded corners*
20,1,$1+$1,$2,$3,$4,$5,0*
20,1,$1+$1,$4,$5,$6,$7,0*
20,1,$1+$1,$6,$7,$8,$9,0*
20,1,$1+$1,$8,$9,$2,$3,0*%
G04 Aperture macros list end*
%ADD10R,2.600000X2.600000*%
%ADD11C,2.600000*%
%ADD12C,2.000000*%
%ADD13RoundRect,0.250000X-0.400000X-0.625000X0.400000X-0.625000X0.400000X0.625000X-0.400000X0.625000X0*%
%ADD14RoundRect,0.250000X-0.750000X0.250000X-0.750000X-0.250000X0.750000X-0.250000X0.750000X0.250000X0*%
%ADD15R,2.500000X1.100000*%
%ADD16R,1.100000X2.500000*%
%ADD17C,3.000000*%
%ADD18C,2.500000*%
%ADD19RoundRect,0.250000X-0.412500X-0.650000X0.412500X-0.650000X0.412500X0.650000X-0.412500X0.650000X0*%
%ADD20RoundRect,0.150000X0.587500X0.150000X-0.587500X0.150000X-0.587500X-0.150000X0.587500X-0.150000X0*%
%ADD21RoundRect,0.250000X0.400000X0.625000X-0.400000X0.625000X-0.400000X-0.625000X0.400000X-0.625000X0*%
%ADD22RoundRect,0.250000X0.412500X0.650000X-0.412500X0.650000X-0.412500X-0.650000X0.412500X-0.650000X0*%
%ADD23RoundRect,0.250000X0.750000X-0.250000X0.750000X0.250000X-0.750000X0.250000X-0.750000X-0.250000X0*%
%ADD24R,1.700000X1.300000*%
%ADD25RoundRect,0.250000X0.625000X-0.312500X0.625000X0.312500X-0.625000X0.312500X-0.625000X-0.312500X0*%
G04 APERTURE END LIST*
D10*
%TO.C,J6*%
X80500000Y-39500000D03*
D11*
X75500000Y-39500000D03*
X70500000Y-39500000D03*
%TD*%
D12*
%TO.C,SW1*%
X86750000Y-42250000D03*
X86750000Y-35750000D03*
X91250000Y-35750000D03*
X91250000Y-42250000D03*
%TD*%
D13*
%TO.C,R4*%
X107450000Y-62000000D03*
X110550000Y-62000000D03*
%TD*%
D14*
%TO.C,J2*%
X89000000Y-66000000D03*
%TD*%
D15*
%TO.C,U2*%
X95300000Y-42912500D03*
X95300000Y-44912500D03*
X95300000Y-46912500D03*
X95300000Y-48912500D03*
X95300000Y-50912500D03*
X95300000Y-52912500D03*
X95300000Y-54912500D03*
X95300000Y-56912500D03*
X110700000Y-56912500D03*
X110700000Y-54912500D03*
X110700000Y-52912500D03*
X110700000Y-50912500D03*
X110700000Y-48912500D03*
X110700000Y-46912500D03*
X110700000Y-44912500D03*
X110700000Y-42912500D03*
D16*
X97990000Y-58612500D03*
X99990000Y-58612500D03*
X101990000Y-58612500D03*
X103990000Y-58612500D03*
X105990000Y-58612500D03*
X107990000Y-58612500D03*
%TD*%
D13*
%TO.C,R2*%
X85450000Y-48000000D03*
X88550000Y-48000000D03*
%TD*%
D17*
%TO.C,K1*%
X75500000Y-64000000D03*
D18*
X81550000Y-62050000D03*
D17*
X81550000Y-49850000D03*
X69500000Y-49800000D03*
D18*
X69550000Y-62050000D03*
%TD*%
D19*
%TO.C,C2*%
X100437500Y-62000000D03*
X103562500Y-62000000D03*
%TD*%
D20*
%TO.C,Q1*%
X86937500Y-57950000D03*
X86937500Y-56050000D03*
X85062500Y-57000000D03*
%TD*%
D21*
%TO.C,R5*%
X88550000Y-51000000D03*
X85450000Y-51000000D03*
%TD*%
D22*
%TO.C,C1*%
X88562500Y-54000000D03*
X85437500Y-54000000D03*
%TD*%
D23*
%TO.C,J1*%
X86000000Y-66000000D03*
%TD*%
D13*
%TO.C,R3*%
X107450000Y-65000000D03*
X110550000Y-65000000D03*
%TD*%
D19*
%TO.C,C3*%
X100437500Y-65000000D03*
X103562500Y-65000000D03*
%TD*%
D24*
%TO.C,D1*%
X86000000Y-63750000D03*
X86000000Y-60250000D03*
%TD*%
D25*
%TO.C,R6*%
X89000000Y-64000000D03*
X89000000Y-61075000D03*
%TD*%
D13*
%TO.C,R1*%
X85450000Y-45000000D03*
X88550000Y-45000000D03*
%TD*%
M02*
