%TF.GenerationSoftware,KiCad,Pcbnew,(6.0.1-0)*%
%TF.CreationDate,2023-10-18T16:46:14+05:30*%
%TF.ProjectId,esp-timer,6573702d-7469-46d6-9572-2e6b69636164,rev?*%
%TF.SameCoordinates,Original*%
%TF.FileFunction,Soldermask,Bot*%
%TF.FilePolarity,Negative*%
%FSLAX46Y46*%
G04 Gerber Fmt 4.6, Leading zero omitted, Abs format (unit mm)*
G04 Created by KiCad (PCBNEW (6.0.1-0)) date 2023-10-18 16:46:14*
%MOMM*%
%LPD*%
G01*
G04 APERTURE LIST*
G04 Aperture macros list*
%AMRoundRect*
0 Rectangle with rounded corners*
0 $1 Rounding radius*
0 $2 $3 $4 $5 $6 $7 $8 $9 X,Y pos of 4 corners*
0 Add a 4 corners polygon primitive as box body*
4,1,4,$2,$3,$4,$5,$6,$7,$8,$9,$2,$3,0*
0 Add four circle primitives for the rounded corners*
1,1,$1+$1,$2,$3*
1,1,$1+$1,$4,$5*
1,1,$1+$1,$6,$7*
1,1,$1+$1,$8,$9*
0 Add four rect primitives between the rounded corners*
20,1,$1+$1,$2,$3,$4,$5,0*
20,1,$1+$1,$4,$5,$6,$7,0*
20,1,$1+$1,$6,$7,$8,$9,0*
20,1,$1+$1,$8,$9,$2,$3,0*%
G04 Aperture macros list end*
%ADD10R,2.600000X2.600000*%
%ADD11C,2.600000*%
%ADD12C,2.000000*%
%ADD13C,3.000000*%
%ADD14C,2.500000*%
%ADD15RoundRect,0.250000X0.250000X0.750000X-0.250000X0.750000X-0.250000X-0.750000X0.250000X-0.750000X0*%
%ADD16RoundRect,0.250000X-0.750000X0.250000X-0.750000X-0.250000X0.750000X-0.250000X0.750000X0.250000X0*%
%ADD17R,1.000000X1.800000*%
%ADD18RoundRect,0.150000X0.825000X0.150000X-0.825000X0.150000X-0.825000X-0.150000X0.825000X-0.150000X0*%
%ADD19R,1.500000X2.000000*%
%ADD20R,3.800000X2.000000*%
G04 APERTURE END LIST*
D10*
%TO.C,J6*%
X80500000Y-39500000D03*
D11*
X75500000Y-39500000D03*
X70500000Y-39500000D03*
%TD*%
D12*
%TO.C,SW1*%
X86750000Y-42250000D03*
X86750000Y-35750000D03*
X91250000Y-35750000D03*
X91250000Y-42250000D03*
%TD*%
D13*
%TO.C,K1*%
X75500000Y-64000000D03*
D14*
X81550000Y-62050000D03*
D13*
X81550000Y-49850000D03*
X69500000Y-49800000D03*
D14*
X69550000Y-62050000D03*
%TD*%
D15*
%TO.C,J9*%
X106000000Y-55000000D03*
%TD*%
%TO.C,J3*%
X102000000Y-55000000D03*
%TD*%
D16*
%TO.C,J7*%
X101000000Y-43000000D03*
%TD*%
D15*
%TO.C,J5*%
X100000000Y-55000000D03*
%TD*%
D17*
%TO.C,Y1*%
X102250000Y-52000000D03*
X99750000Y-52000000D03*
%TD*%
D16*
%TO.C,J8*%
X106000000Y-43000000D03*
%TD*%
D18*
%TO.C,U3*%
X105475000Y-45154970D03*
X105475000Y-46424970D03*
X105475000Y-47694970D03*
X105475000Y-48964970D03*
X100525000Y-48964970D03*
X100525000Y-47694970D03*
X100525000Y-46424970D03*
X100525000Y-45154970D03*
%TD*%
D15*
%TO.C,J10*%
X108000000Y-55000000D03*
%TD*%
%TO.C,J4*%
X104000000Y-55000000D03*
%TD*%
D19*
%TO.C,U1*%
X97300000Y-65150000D03*
X95000000Y-65150000D03*
D20*
X95000000Y-58850000D03*
D19*
X92700000Y-65150000D03*
%TD*%
G36*
X70044032Y-39060134D02*
G01*
X70089095Y-39089095D01*
X70963095Y-39963095D01*
X70997121Y-40025407D01*
X71000000Y-40052190D01*
X71000000Y-49796128D01*
X70979998Y-49864249D01*
X70926342Y-49910742D01*
X70856068Y-49920846D01*
X70817651Y-49908826D01*
X69069651Y-49034826D01*
X69017667Y-48986471D01*
X69000000Y-48922128D01*
X69000000Y-40052190D01*
X69020002Y-39984069D01*
X69036905Y-39963095D01*
X69910905Y-39089095D01*
X69973217Y-39055069D01*
X70044032Y-39060134D01*
G37*
G36*
X95942121Y-59020002D02*
G01*
X95988614Y-59073658D01*
X96000000Y-59126000D01*
X96000000Y-65874000D01*
X95979998Y-65942121D01*
X95926342Y-65988614D01*
X95874000Y-66000000D01*
X94126000Y-66000000D01*
X94057879Y-65979998D01*
X94011386Y-65926342D01*
X94000000Y-65874000D01*
X94000000Y-59126000D01*
X94020002Y-59057879D01*
X94073658Y-59011386D01*
X94126000Y-59000000D01*
X95874000Y-59000000D01*
X95942121Y-59020002D01*
G37*
G36*
X76442121Y-38770002D02*
G01*
X76488614Y-38823658D01*
X76500000Y-38876000D01*
X76500000Y-64124000D01*
X76479998Y-64192121D01*
X76426342Y-64238614D01*
X76374000Y-64250000D01*
X74626000Y-64250000D01*
X74557879Y-64229998D01*
X74511386Y-64176342D01*
X74500000Y-64124000D01*
X74500000Y-38876000D01*
X74520002Y-38807879D01*
X74573658Y-38761386D01*
X74626000Y-38750000D01*
X76374000Y-38750000D01*
X76442121Y-38770002D01*
G37*
G36*
X81044032Y-38810134D02*
G01*
X81089095Y-38839095D01*
X81963095Y-39713095D01*
X81997121Y-39775407D01*
X82000000Y-39802190D01*
X82000000Y-48680165D01*
X81979998Y-48748286D01*
X81940780Y-48787013D01*
X80192780Y-49879513D01*
X80124413Y-49898655D01*
X80056549Y-49877796D01*
X80010736Y-49823559D01*
X80000000Y-49772665D01*
X80000000Y-39802190D01*
X80020002Y-39734069D01*
X80036905Y-39713095D01*
X80910905Y-38839095D01*
X80973217Y-38805069D01*
X81044032Y-38810134D01*
G37*
M02*
