%TF.GenerationSoftware,KiCad,Pcbnew,(6.0.1-0)*%
%TF.CreationDate,2023-10-18T16:46:14+05:30*%
%TF.ProjectId,esp-timer,6573702d-7469-46d6-9572-2e6b69636164,rev?*%
%TF.SameCoordinates,Original*%
%TF.FileFunction,Legend,Bot*%
%TF.FilePolarity,Positive*%
%FSLAX46Y46*%
G04 Gerber Fmt 4.6, Leading zero omitted, Abs format (unit mm)*
G04 Created by KiCad (PCBNEW (6.0.1-0)) date 2023-10-18 16:46:14*
%MOMM*%
%LPD*%
G01*
G04 APERTURE LIST*
%ADD10C,0.150000*%
%ADD11C,0.120000*%
G04 APERTURE END LIST*
D10*
%TO.C,J9*%
X106333333Y-56452380D02*
X106333333Y-57166666D01*
X106380952Y-57309523D01*
X106476190Y-57404761D01*
X106619047Y-57452380D01*
X106714285Y-57452380D01*
X105809523Y-57452380D02*
X105619047Y-57452380D01*
X105523809Y-57404761D01*
X105476190Y-57357142D01*
X105380952Y-57214285D01*
X105333333Y-57023809D01*
X105333333Y-56642857D01*
X105380952Y-56547619D01*
X105428571Y-56500000D01*
X105523809Y-56452380D01*
X105714285Y-56452380D01*
X105809523Y-56500000D01*
X105857142Y-56547619D01*
X105904761Y-56642857D01*
X105904761Y-56880952D01*
X105857142Y-56976190D01*
X105809523Y-57023809D01*
X105714285Y-57071428D01*
X105523809Y-57071428D01*
X105428571Y-57023809D01*
X105380952Y-56976190D01*
X105333333Y-56880952D01*
%TO.C,J3*%
X102333333Y-56452380D02*
X102333333Y-57166666D01*
X102380952Y-57309523D01*
X102476190Y-57404761D01*
X102619047Y-57452380D01*
X102714285Y-57452380D01*
X101952380Y-56452380D02*
X101333333Y-56452380D01*
X101666666Y-56833333D01*
X101523809Y-56833333D01*
X101428571Y-56880952D01*
X101380952Y-56928571D01*
X101333333Y-57023809D01*
X101333333Y-57261904D01*
X101380952Y-57357142D01*
X101428571Y-57404761D01*
X101523809Y-57452380D01*
X101809523Y-57452380D01*
X101904761Y-57404761D01*
X101952380Y-57357142D01*
%TO.C,J7*%
X102452380Y-41666666D02*
X103166666Y-41666666D01*
X103309523Y-41619047D01*
X103404761Y-41523809D01*
X103452380Y-41380952D01*
X103452380Y-41285714D01*
X102452380Y-42047619D02*
X102452380Y-42714285D01*
X103452380Y-42285714D01*
%TO.C,J5*%
X100333333Y-56452380D02*
X100333333Y-57166666D01*
X100380952Y-57309523D01*
X100476190Y-57404761D01*
X100619047Y-57452380D01*
X100714285Y-57452380D01*
X99380952Y-56452380D02*
X99857142Y-56452380D01*
X99904761Y-56928571D01*
X99857142Y-56880952D01*
X99761904Y-56833333D01*
X99523809Y-56833333D01*
X99428571Y-56880952D01*
X99380952Y-56928571D01*
X99333333Y-57023809D01*
X99333333Y-57261904D01*
X99380952Y-57357142D01*
X99428571Y-57404761D01*
X99523809Y-57452380D01*
X99761904Y-57452380D01*
X99857142Y-57404761D01*
X99904761Y-57357142D01*
%TO.C,J8*%
X107452380Y-42666666D02*
X108166666Y-42666666D01*
X108309523Y-42619047D01*
X108404761Y-42523809D01*
X108452380Y-42380952D01*
X108452380Y-42285714D01*
X107880952Y-43285714D02*
X107833333Y-43190476D01*
X107785714Y-43142857D01*
X107690476Y-43095238D01*
X107642857Y-43095238D01*
X107547619Y-43142857D01*
X107500000Y-43190476D01*
X107452380Y-43285714D01*
X107452380Y-43476190D01*
X107500000Y-43571428D01*
X107547619Y-43619047D01*
X107642857Y-43666666D01*
X107690476Y-43666666D01*
X107785714Y-43619047D01*
X107833333Y-43571428D01*
X107880952Y-43476190D01*
X107880952Y-43285714D01*
X107928571Y-43190476D01*
X107976190Y-43142857D01*
X108071428Y-43095238D01*
X108261904Y-43095238D01*
X108357142Y-43142857D01*
X108404761Y-43190476D01*
X108452380Y-43285714D01*
X108452380Y-43476190D01*
X108404761Y-43571428D01*
X108357142Y-43619047D01*
X108261904Y-43666666D01*
X108071428Y-43666666D01*
X107976190Y-43619047D01*
X107928571Y-43571428D01*
X107880952Y-43476190D01*
%TO.C,J10*%
X109809523Y-56452380D02*
X109809523Y-57166666D01*
X109857142Y-57309523D01*
X109952380Y-57404761D01*
X110095238Y-57452380D01*
X110190476Y-57452380D01*
X108809523Y-57452380D02*
X109380952Y-57452380D01*
X109095238Y-57452380D02*
X109095238Y-56452380D01*
X109190476Y-56595238D01*
X109285714Y-56690476D01*
X109380952Y-56738095D01*
X108190476Y-56452380D02*
X108095238Y-56452380D01*
X108000000Y-56500000D01*
X107952380Y-56547619D01*
X107904761Y-56642857D01*
X107857142Y-56833333D01*
X107857142Y-57071428D01*
X107904761Y-57261904D01*
X107952380Y-57357142D01*
X108000000Y-57404761D01*
X108095238Y-57452380D01*
X108190476Y-57452380D01*
X108285714Y-57404761D01*
X108333333Y-57357142D01*
X108380952Y-57261904D01*
X108428571Y-57071428D01*
X108428571Y-56833333D01*
X108380952Y-56642857D01*
X108333333Y-56547619D01*
X108285714Y-56500000D01*
X108190476Y-56452380D01*
%TO.C,J4*%
X104333333Y-56452380D02*
X104333333Y-57166666D01*
X104380952Y-57309523D01*
X104476190Y-57404761D01*
X104619047Y-57452380D01*
X104714285Y-57452380D01*
X103428571Y-56785714D02*
X103428571Y-57452380D01*
X103666666Y-56404761D02*
X103904761Y-57119047D01*
X103285714Y-57119047D01*
D11*
%TO.C,Y1*%
X101550000Y-52950000D02*
X100450000Y-52950000D01*
X101550000Y-51050000D02*
X100450000Y-51050000D01*
X102950000Y-51100000D02*
X102950000Y-52900000D01*
%TO.C,U3*%
X103000000Y-44499970D02*
X101050000Y-44499970D01*
X103000000Y-49619970D02*
X104950000Y-49619970D01*
X103000000Y-49619970D02*
X101050000Y-49619970D01*
X103000000Y-44499970D02*
X106450000Y-44499970D01*
%TO.C,U1*%
X91590000Y-63850000D02*
X91590000Y-60090000D01*
X98410000Y-60090000D02*
X97150000Y-60090000D01*
X98410000Y-66100000D02*
X98410000Y-60090000D01*
X91590000Y-60090000D02*
X92850000Y-60090000D01*
%TD*%
M02*
