M48
; DRILL file {KiCad (6.0.1-0)} date 2023 October 18, Wednesday 16:46:08
; FORMAT={-:-/ absolute / inch / decimal}
; #@! TF.CreationDate,2023-10-18T16:46:08+05:30
; #@! TF.GenerationSoftware,Kicad,Pcbnew,(6.0.1-0)
; #@! TF.FileFunction,MixedPlating,1,2
FMAT,2
INCH
; #@! TA.AperFunction,Plated,PTH,ViaDrill
T1C0.0157
; #@! TA.AperFunction,Plated,PTH,ComponentDrill
T2C0.0394
; #@! TA.AperFunction,Plated,PTH,ComponentDrill
T3C0.0433
; #@! TA.AperFunction,Plated,PTH,ComponentDrill
T4C0.0512
%
G90
G05
T1
X3.248Y-2.5197
X3.3071Y-2.1457
X3.3923Y-2.0635
X3.5039Y-2.2047
X3.5433Y-2.0472
X3.6614Y-2.126
X3.6614Y-2.2441
X3.8189Y-2.4803
X3.8248Y-1.6929
X3.8583Y-1.9685
X3.8976Y-2.5591
X3.9764Y-1.9709
X4.0551Y-1.6929
X4.0551Y-1.8528
X4.0551Y-1.8921
X4.0945Y-2.0079
X4.1339Y-2.5197
X4.1732Y-2.4409
X4.2126Y-2.0866
X4.2508Y-2.0067
X4.252Y-1.6929
X4.252Y-1.811
X4.3307Y-2.3622
X4.3701Y-2.3622
T2
X2.7382Y-2.4429
X3.2106Y-2.4429
T3
X3.4154Y-1.4075
X3.4154Y-1.6634
X3.5925Y-1.4075
X3.5925Y-1.6634
T4
X2.7362Y-1.9606
X2.7756Y-1.5551
X2.9724Y-1.5551
X2.9724Y-2.5197
X3.1693Y-1.5551
X3.2106Y-1.9626
T0
M30
